<svg width="136" height="37" viewBox="0 0 136 37" fill="none" xmlns="http://www.w3.org/2000/svg">
<path fill-rule="evenodd" clip-rule="evenodd" d="M15.1162 8.74766C21.8519 8.74766 27.3103 14.294 27.3103 21.1353C27.3103 27.9767 21.8519 33.523 15.1162 33.523C8.38054 33.523 2.91986 27.9767 2.91986 21.1353C2.91986 14.294 8.38054 8.74766 15.1162 8.74766ZM15.1162 5.782C23.4646 5.782 30.2324 12.656 30.2324 21.1353C30.2324 29.6147 23.4646 36.4887 15.1162 36.4887C6.76784 36.4887 0 29.6147 0 21.1353C0 12.656 6.76784 5.782 15.1162 5.782Z" fill="black"/>
<path fill-rule="evenodd" clip-rule="evenodd" d="M15.1162 1.37433C15.8628 1.37433 16.4693 1.99267 16.4693 2.751C16.4693 3.51167 15.8628 4.12767 15.1162 4.12767C14.3673 4.12767 13.7608 3.51167 13.7608 2.751C13.7608 1.99267 14.3673 1.37433 15.1162 1.37433ZM15.1162 0C16.6118 0 17.8247 1.232 17.8247 2.751C17.8247 4.27233 16.6118 5.50433 15.1162 5.50433C13.6184 5.50433 12.4054 4.27233 12.4054 2.751C12.4054 1.232 13.6184 0 15.1162 0Z" fill="black"/>
<path d="M16.5497 7.35466H13.6804V34.916H16.5497V7.35466Z" fill="black"/>
<path d="M1.54785 19.6789L1.54785 22.5913L28.683 22.5913L28.683 19.6789L1.54785 19.6789Z" fill="black"/>
<path fill-rule="evenodd" clip-rule="evenodd" d="M24.3307 11.382L13.3749 19.292L5.89946 30.8863L24.3307 11.382Z" fill="black" stroke="#1A1A1A" stroke-width="0.288"/>
<path fill-rule="evenodd" clip-rule="evenodd" d="M24.3307 11.382L16.8553 22.9763L5.89946 30.8863L24.3307 11.382Z" fill="black" stroke="#1A1A1A" stroke-width="0.288"/>
<path d="M15.1162 24.4393C16.9128 24.4393 18.3692 22.9601 18.3692 21.1353C18.3692 19.3106 16.9128 17.8313 15.1162 17.8313C13.3196 17.8313 11.8632 19.3106 11.8632 21.1353C11.8632 22.9601 13.3196 24.4393 15.1162 24.4393Z" fill="white"/>
<path fill-rule="evenodd" clip-rule="evenodd" d="M15.1162 33.6607L19.5868 33.558C19.527 31.318 17.5422 29.5307 15.1162 29.5307C12.6489 29.5307 10.6457 31.3763 10.6434 33.6537L15.1162 33.6607Z" fill="black"/>
<path d="M48.0037 26.2443H44.7083L49.7296 11.6989H53.6927L58.7069 26.2443H55.4114L51.7679 15.0227H51.6543L48.0037 26.2443ZM47.7978 20.527H55.5819V22.9276H47.7978V20.527ZM68.6236 18.446L65.8537 18.6165C65.8063 18.3798 65.7045 18.1667 65.5483 17.9773C65.392 17.7832 65.1861 17.6293 64.9304 17.5156C64.6794 17.3973 64.3788 17.3381 64.0284 17.3381C63.5596 17.3381 63.1643 17.4375 62.8423 17.6364C62.5203 17.8305 62.3594 18.0909 62.3594 18.4176C62.3594 18.6781 62.4635 18.8982 62.6719 19.0781C62.8802 19.2581 63.2377 19.4025 63.7443 19.5114L65.7187 19.9091C66.7793 20.1269 67.5701 20.4773 68.0909 20.9602C68.6117 21.4432 68.8721 22.0777 68.8721 22.8637C68.8721 23.5786 68.6614 24.206 68.24 24.7458C67.8234 25.2855 67.2505 25.7069 66.5213 26.01C65.7969 26.3083 64.9612 26.4574 64.0142 26.4574C62.5701 26.4574 61.4195 26.1567 60.5625 25.5554C59.7102 24.9494 59.2107 24.1255 59.0639 23.0838L62.0398 22.9276C62.1297 23.3679 62.3475 23.7041 62.6932 23.9361C63.0388 24.1634 63.4815 24.277 64.0213 24.277C64.5516 24.277 64.9777 24.1752 65.2997 23.9716C65.6264 23.7633 65.7921 23.4958 65.7969 23.1691C65.7921 22.8944 65.6761 22.6695 65.4488 22.4943C65.2216 22.3144 64.8712 22.1771 64.3977 22.0824L62.5085 21.706C61.4432 21.4929 60.6501 21.1236 60.1292 20.598C59.6131 20.0725 59.3551 19.4025 59.3551 18.5881C59.3551 17.8873 59.5445 17.2836 59.9233 16.777C60.3068 16.2704 60.8442 15.8798 61.5355 15.6051C62.2315 15.3305 63.0459 15.1932 63.9787 15.1932C65.3565 15.1932 66.4408 15.4844 67.2315 16.0668C68.027 16.6492 68.491 17.4423 68.6236 18.446ZM75.9799 15.3352V17.608H69.4103V15.3352H75.9799ZM70.9018 12.7216H73.9273V22.8921C73.9273 23.1714 73.9699 23.3892 74.0552 23.5455C74.1404 23.697 74.2588 23.8035 74.4103 23.8651C74.5665 23.9266 74.7465 23.9574 74.9501 23.9574C75.0921 23.9574 75.2341 23.9456 75.3762 23.9219C75.5182 23.8935 75.6271 23.8722 75.7029 23.858L76.1787 26.1094C76.0272 26.1567 75.8142 26.2112 75.5395 26.2727C75.2649 26.339 74.9311 26.3793 74.5381 26.3935C73.809 26.4219 73.1697 26.3248 72.6205 26.1023C72.076 25.8798 71.6522 25.5341 71.3492 25.0654C71.0462 24.5966 70.897 24.0048 70.9018 23.2898V12.7216ZM77.3508 26.2443V15.3352H80.284V17.2387H80.3976C80.5965 16.5616 80.9303 16.0502 81.3991 15.7046C81.8678 15.3542 82.4076 15.179 83.0184 15.179C83.1699 15.179 83.3332 15.1885 83.5084 15.2074C83.6836 15.2263 83.8375 15.2524 83.9701 15.2855V17.9702C83.828 17.9276 83.6315 17.8897 83.3806 17.8566C83.1296 17.8234 82.9 17.8068 82.6917 17.8068C82.2466 17.8068 81.8489 17.9039 81.4985 18.098C81.1528 18.2874 80.8782 18.5526 80.6746 18.8935C80.4758 19.2344 80.3763 19.6274 80.3763 20.0725V26.2443H77.3508ZM89.3555 26.4574C88.2523 26.4574 87.2982 26.223 86.4933 25.7543C85.6931 25.2808 85.0752 24.6227 84.6396 23.7799C84.204 22.9323 83.9862 21.9498 83.9862 20.8324C83.9862 19.7055 84.204 18.7207 84.6396 17.8779C85.0752 17.0303 85.6931 16.3722 86.4933 15.9034C87.2982 15.4299 88.2523 15.1932 89.3555 15.1932C90.4587 15.1932 91.4104 15.4299 92.2106 15.9034C93.0156 16.3722 93.6358 17.0303 94.0714 17.8779C94.507 18.7207 94.7248 19.7055 94.7248 20.8324C94.7248 21.9498 94.507 22.9323 94.0714 23.7799C93.6358 24.6227 93.0156 25.2808 92.2106 25.7543C91.4104 26.223 90.4587 26.4574 89.3555 26.4574ZM89.3697 24.1137C89.8716 24.1137 90.2907 23.9716 90.6268 23.6875C90.963 23.3987 91.2163 23.0057 91.3868 22.5085C91.562 22.0114 91.6496 21.4456 91.6496 20.8111C91.6496 20.1766 91.562 19.6108 91.3868 19.1137C91.2163 18.6165 90.963 18.2235 90.6268 17.9347C90.2907 17.6459 89.8716 17.5014 89.3697 17.5014C88.8631 17.5014 88.437 17.6459 88.0913 17.9347C87.7504 18.2235 87.4924 18.6165 87.3172 19.1137C87.1467 19.6108 87.0615 20.1766 87.0615 20.8111C87.0615 21.4456 87.1467 22.0114 87.3172 22.5085C87.4924 23.0057 87.7504 23.3987 88.0913 23.6875C88.437 23.9716 88.8631 24.1137 89.3697 24.1137ZM99.1177 11.6989V26.2443H96.0922V11.6989H99.1177ZM104.052 26.4503C103.356 26.4503 102.736 26.3296 102.191 26.0881C101.647 25.8419 101.216 25.4797 100.899 25.0014C100.586 24.5185 100.43 23.9172 100.43 23.1975C100.43 22.5914 100.541 22.0824 100.764 21.6705C100.986 21.2585 101.289 20.9271 101.673 20.6762C102.056 20.4252 102.492 20.2358 102.98 20.108C103.472 19.9801 103.988 19.8902 104.528 19.8381C105.163 19.7718 105.674 19.7102 106.062 19.6534C106.45 19.5919 106.732 19.5019 106.907 19.3835C107.082 19.2652 107.17 19.09 107.17 18.858V18.8154C107.17 18.3656 107.028 18.0175 106.744 17.7713C106.465 17.5251 106.067 17.402 105.551 17.402C105.006 17.402 104.573 17.5227 104.251 17.7642C103.929 18.001 103.716 18.2993 103.612 18.6591L100.814 18.4318C100.956 17.769 101.235 17.196 101.652 16.7131C102.068 16.2254 102.606 15.8513 103.264 15.5909C103.927 15.3258 104.694 15.1932 105.565 15.1932C106.171 15.1932 106.751 15.2642 107.305 15.4063C107.864 15.5483 108.359 15.7685 108.789 16.0668C109.225 16.3651 109.568 16.7486 109.819 17.2174C110.07 17.6814 110.196 18.2377 110.196 18.8864V26.2443H107.326V24.7316H107.241C107.066 25.0725 106.832 25.3731 106.538 25.6335C106.244 25.8892 105.892 26.0905 105.48 26.2372C105.068 26.3793 104.592 26.4503 104.052 26.4503ZM104.919 24.3622C105.364 24.3622 105.757 24.2746 106.098 24.0995C106.439 23.9195 106.706 23.6781 106.9 23.375C107.094 23.072 107.191 22.7287 107.191 22.3452V21.1875C107.097 21.2491 106.966 21.3059 106.801 21.358C106.64 21.4053 106.457 21.4503 106.254 21.4929C106.05 21.5308 105.847 21.5663 105.643 21.5995C105.439 21.6279 105.255 21.6539 105.089 21.6776C104.734 21.7297 104.424 21.8125 104.159 21.9262C103.894 22.0398 103.688 22.1937 103.541 22.3878C103.394 22.5772 103.321 22.8139 103.321 23.098C103.321 23.51 103.47 23.8248 103.768 24.0426C104.071 24.2557 104.455 24.3622 104.919 24.3622ZM112 26.2443V11.6989H115.025V17.1676H115.118C115.25 16.8741 115.442 16.5758 115.693 16.2727C115.949 15.965 116.28 15.7093 116.687 15.5057C117.099 15.2974 117.611 15.1932 118.221 15.1932C119.017 15.1932 119.751 15.4015 120.423 15.8182C121.095 16.2301 121.633 16.8528 122.035 17.6861C122.438 18.5147 122.639 19.554 122.639 20.804C122.639 22.0209 122.442 23.0483 122.049 23.8864C121.661 24.7197 121.131 25.3518 120.459 25.7827C119.791 26.2088 119.043 26.4219 118.214 26.4219C117.627 26.4219 117.128 26.3248 116.716 26.1307C116.308 25.9366 115.975 25.6927 115.714 25.3992C115.454 25.1009 115.255 24.8002 115.118 24.4972H114.983V26.2443H112ZM114.961 20.7898C114.961 21.4385 115.051 22.0043 115.231 22.4872C115.411 22.9702 115.672 23.3466 116.013 23.6165C116.353 23.8816 116.768 24.0142 117.255 24.0142C117.748 24.0142 118.165 23.8793 118.505 23.6094C118.846 23.3348 119.104 22.956 119.28 22.473C119.46 21.9853 119.549 21.4243 119.549 20.7898C119.549 20.1601 119.462 19.6061 119.287 19.1279C119.112 18.6496 118.853 18.2756 118.513 18.0057C118.172 17.7358 117.753 17.6009 117.255 17.6009C116.763 17.6009 116.346 17.7311 116.005 17.9915C115.669 18.2519 115.411 18.6212 115.231 19.0995C115.051 19.5777 114.961 20.1411 114.961 20.7898ZM129.029 26.4574C127.907 26.4574 126.941 26.2301 126.132 25.7756C125.327 25.3163 124.706 24.6676 124.271 23.8296C123.835 22.9868 123.617 21.9901 123.617 20.8395C123.617 19.7174 123.835 18.7325 124.271 17.885C124.706 17.0374 125.32 16.3769 126.11 15.9034C126.906 15.4299 127.839 15.1932 128.909 15.1932C129.628 15.1932 130.298 15.3092 130.919 15.5412C131.544 15.7685 132.088 16.1118 132.552 16.571C133.021 17.0303 133.385 17.608 133.646 18.304C133.906 18.9953 134.036 19.8049 134.036 20.733V21.5639H124.825V19.6889H131.188C131.188 19.2533 131.094 18.8674 130.904 18.5313C130.715 18.1951 130.452 17.9323 130.116 17.7429C129.785 17.5488 129.399 17.4517 128.958 17.4517C128.499 17.4517 128.092 17.5583 127.737 17.7713C127.386 17.9797 127.112 18.2614 126.913 18.6165C126.714 18.9669 126.612 19.3575 126.608 19.7884V21.571C126.608 22.1108 126.707 22.5772 126.906 22.9702C127.109 23.3632 127.396 23.6662 127.765 23.8793C128.134 24.0924 128.572 24.1989 129.079 24.1989C129.415 24.1989 129.723 24.1515 130.002 24.0568C130.282 23.9621 130.521 23.8201 130.72 23.6307C130.919 23.4413 131.07 23.2093 131.174 22.9347L133.973 23.1193C133.831 23.7917 133.539 24.3788 133.099 24.8807C132.663 25.3779 132.1 25.7661 131.409 26.0455C130.722 26.3201 129.929 26.4574 129.029 26.4574Z" fill="black"/>
</svg>
